<svg width="834" height="268" viewBox="0 0 834 268" fill="none" xmlns="http://www.w3.org/2000/svg">
<path d="M106 205.2C101.067 204.8 96 204.467 90.8 204.2C85.7333 204.067 81.2 204 77.2 204H6V198L14.2 197.2C18.6 196.8 21.6667 195.6 23.4 193.6C25.1333 191.6 26 188.267 26 183.6V84.4C26 79.7333 25.1333 76.4 23.4 74.4C21.6667 72.4 18.6 71.2 14.2 70.8L6 70V64H77.6C84 64 89.3333 63.9333 93.6 63.8C98 63.5333 102.067 63.2 105.8 62.8L108.8 95.2H102.8C100.933 86.4 98.0667 80.3333 94.2 77C90.3333 73.6667 84.2667 72 76 72H44.8V128.6H86.6C91.2667 128.6 94.5333 127.733 96.4 126C98.2667 124.133 99.4 120.733 99.8 115.8L100.2 110.6H106.2V154.2H100.2L100 147.4C99.8667 143.533 98.7333 140.8 96.6 139.2C94.6 137.467 91.2667 136.6 86.6 136.6H44.8V183.6C44.8 187.067 45.4 189.733 46.6 191.6C47.9333 193.467 50.4 194.8 54 195.6C57.6 196.267 62.9333 196.6 70 196.6C77.4667 196.6 83.3333 195.733 87.6 194C92 192.133 95.4667 189 98 184.6C100.667 180.067 103 173.8 105 165.8H111.2L106 205.2ZM230.313 205.2C226.179 204.8 221.513 204.467 216.313 204.2C211.246 204.067 206.313 204 201.513 204H126.313V198L134.513 197.2C138.913 196.8 141.979 195.6 143.713 193.6C145.446 191.6 146.313 188.267 146.313 183.6V84.4C146.313 79.7333 145.446 76.4 143.713 74.4C141.979 72.4 138.913 71.2 134.513 70.8L126.313 70V64H187.113V70L176.913 70.8C172.513 71.0667 169.446 72.2667 167.713 74.4C165.979 76.4 165.113 79.7333 165.113 84.4V183.6C165.113 187.067 165.713 189.733 166.913 191.6C168.246 193.467 170.713 194.8 174.313 195.6C177.913 196.267 183.246 196.6 190.313 196.6C198.579 196.6 205.179 195.733 210.113 194C215.179 192.133 219.113 189 221.913 184.6C224.846 180.067 227.313 173.8 229.313 165.8H235.513L230.313 205.2ZM259.214 204V198L265.414 197.4C269.414 197 272.481 196.333 274.614 195.4C276.747 194.467 278.214 193.067 279.014 191.2C279.814 189.2 280.214 186.667 280.214 183.6V140.8L245.414 85.6C242.747 81.2 240.414 77.9333 238.414 75.8C236.547 73.6667 234.547 72.2 232.414 71.4C230.281 70.6 227.481 70.1333 224.014 70V64H276.014V70L271.814 70.2C267.281 70.4667 264.481 71.8667 263.414 74.4C262.347 76.9333 263.281 80.6667 266.214 85.6L297.814 137.4H290.214L321.214 86.2C324.147 81.4 324.947 77.6 323.614 74.8C322.414 72 319.414 70.4667 314.614 70.2L310.414 70V64H352.614V70C348.214 70.2667 344.481 71.6 341.414 74C338.347 76.2667 335.081 80.1333 331.614 85.6L299.014 138.4V183.6C299.014 186.667 299.414 189.2 300.214 191.2C301.014 193.067 302.481 194.467 304.614 195.4C306.881 196.333 309.947 197 313.814 197.4L320.014 198V204H259.214ZM397.4 206C391.267 206 385.2 205.2 379.2 203.6C373.2 202 367.133 199.333 361 195.6V162.2H367C368.067 173.667 371.6 182.467 377.6 188.6C383.6 194.733 391.467 197.8 401.2 197.8C410 197.8 417.067 195.4 422.4 190.6C427.733 185.8 430.4 179.6 430.4 172C430.4 166.8 428.867 162.267 425.8 158.4C422.733 154.4 417.467 150.333 410 146.2L387.8 134C378.6 128.933 372 123.867 368 118.8C364.133 113.6 362.2 107.533 362.2 100.6C362.2 93.1333 364.267 86.5333 368.4 80.8C372.533 74.9333 378.133 70.3333 385.2 67C392.4 63.6667 400.6 62 409.8 62C415.267 62 420.6 62.6 425.8 63.8C431 65 436.267 66.9333 441.6 69.6V94.8H435.6C434.267 86.8 431.067 80.7333 426 76.6C420.933 72.3333 414.2 70.2 405.8 70.2C397.267 70.2 390.467 72.2667 385.4 76.4C380.467 80.5333 378 85.8667 378 92.4C378 97.3333 379.533 101.8 382.6 105.8C385.667 109.8 390.2 113.4 396.2 116.6L419.4 129.2C426.6 133.067 432.267 136.867 436.4 140.6C440.533 144.2 443.4 147.933 445 151.8C446.733 155.667 447.6 159.933 447.6 164.6C447.6 172.733 445.467 179.933 441.2 186.2C436.933 192.333 431 197.2 423.4 200.8C415.933 204.267 407.267 206 397.4 206ZM462.055 204V198L470.255 197.2C473.588 196.8 476.055 196.067 477.655 195C479.388 193.933 480.521 192.467 481.055 190.6C481.721 188.733 482.055 186.4 482.055 183.6V84.4C482.055 81.6 481.721 79.2667 481.055 77.4C480.521 75.5333 479.388 74.0667 477.655 73C476.055 71.8 473.588 71.0667 470.255 70.8L462.055 70V64H520.855V70L512.655 70.8C509.455 71.0667 506.988 71.8 505.255 73C503.521 74.0667 502.321 75.5333 501.655 77.4C501.121 79.2667 500.855 81.6 500.855 84.4V183.6C500.855 186.4 501.121 188.733 501.655 190.6C502.321 192.467 503.521 193.933 505.255 195C506.988 196.067 509.455 196.8 512.655 197.2L520.855 198V204H462.055ZM524.358 204V198C529.424 197.2 533.291 196.267 535.958 195.2C538.758 194.133 541.024 192.267 542.758 189.6C544.491 186.8 546.491 182.6 548.758 177L595.358 63H601.958L648.758 179.8C651.158 185.933 653.891 190.333 656.958 193C660.024 195.667 664.758 197.333 671.158 198V204H614.158V198L622.358 197C626.624 196.467 629.291 194.933 630.358 192.4C631.558 189.733 631.158 185.933 629.158 181L589.958 81.8H596.158L558.358 178.6C555.824 185 555.224 189.6 556.558 192.4C557.891 195.2 561.091 196.867 566.158 197.4L571.958 198V204H524.358ZM566.558 149.8V141.8H626.958V149.8H566.558ZM803.327 205.6L703.727 85.8C703.86 92.8667 703.927 99.8 703.927 106.6C704.06 113.267 704.193 120.267 704.327 127.6C704.46 134.933 704.527 143.067 704.527 152C704.66 160.8 704.727 170.933 704.727 182.4C704.727 186.267 705.127 189.267 705.927 191.4C706.86 193.533 708.46 195.067 710.727 196C713.127 196.933 716.393 197.533 720.527 197.8L724.727 198V204H677.127V198L681.327 197.6C685.06 197.2 687.927 196.533 689.927 195.6C691.927 194.533 693.26 193 693.927 191C694.727 188.867 695.127 186 695.127 182.4L695.727 85.6C695.727 80.1333 694.66 76.4 692.527 74.4C690.527 72.2667 686.46 70.9333 680.327 70.4L676.127 70V64H709.527L800.727 173.4C800.593 164.333 800.46 156.333 800.327 149.4C800.193 142.467 800.06 135.933 799.927 129.8C799.927 123.533 799.927 117.067 799.927 110.4C799.927 103.733 799.927 96.1333 799.927 87.6C799.927 83.0667 799.46 79.6 798.527 77.2C797.727 74.8 796.193 73.0667 793.927 72C791.66 70.9333 788.393 70.3333 784.127 70.2L779.927 70V64H827.527V70L823.327 70.4C819.593 70.8 816.727 71.5333 814.727 72.6C812.727 73.5333 811.327 75.2 810.527 77.6C809.86 79.8667 809.527 83.2 809.527 87.6L808.927 205.6H803.327Z" fill="#087B08"/>
</svg>
